<mxfile host="app.diagrams.net" modified="2023-05-24T15:14:36.719Z" agent="Mozilla/5.0 (Macintosh; Intel Mac OS X 10.15; rv:109.0) Gecko/20100101 Firefox/113.0" version="21.3.3" etag="lp8EEGiRnWjuntXW6y8a" type="github">
  <diagram name="Page-1" id="JjYXa-n1G-SPFCo9hVN6">
    <mxGraphModel>
      <root>
        <mxCell id="0" />
        <mxCell id="1" parent="0" />
      </root>
    </mxGraphModel>
  </diagram>
</mxfile>
